/home/minht/3dpredictsim_tutorial/predsim_tutorial/Results/Case_9/GRF.mot
version=1
nRows=15
nColumns=19
inDegrees=yes
endheader 
time	r_ground_force_vx	r_ground_force_vy	r_ground_force_vz	r_ground_force_px	r_ground_force_py	r_ground_force_pz	l_ground_force_vx	l_ground_force_vy	l_ground_force_vz	l_ground_force_px	l_ground_force_py	l_ground_force_pz	r_ground_torque_x	r_ground_torque_y	r_ground_torque_z	l_ground_torque_x	l_ground_torque_y	l_ground_torque_z	
          0.00000000	        -44.59143424	        134.37793297	         93.99641127	          0.14809518	          0.00000000	          0.04483825	         39.30221600	        776.43322207	         -1.76325147	         -0.21954017	          0.00000000	         -0.07796620	          0.00000000	         -0.00066002	          0.00000000	          0.00000000	         -7.72451479	          0.00000000	
          0.03131656	        -10.89879759	        369.14520855	         41.34754967	          0.15257546	          0.00000000	          0.04121463	         36.19727463	        673.38647885	         -8.68596756	         -0.20631924	          0.00000000	         -0.07779815	          0.00000000	         -0.05763175	          0.00000000	          0.00000000	         -5.57650493	          0.00000000	
          0.06263313	        -51.87391800	        576.08007960	         34.93322735	          0.16229318	          0.00000000	          0.04479373	         23.06038254	        538.36124074	        -14.23015480	         -0.18490234	          0.00000000	         -0.07608780	          0.00000000	         -0.23846243	          0.00000000	          0.00000000	         -3.77442471	          0.00000000	
          0.09394969	        -75.69458939	        712.13549290	         30.28007167	          0.17164376	          0.00000000	          0.04732437	          9.16513369	        410.90657590	        -19.88935555	         -0.15725894	          0.00000000	         -0.07198815	          0.00000000	          0.45603075	          0.00000000	          0.00000000	         -1.98290559	          0.00000000	
          0.12526625	        -83.02118544	        783.74800676	         26.16194051	          0.18336798	          0.00000000	          0.04703076	          0.77073523	        339.58534342	        -26.10398763	         -0.13873791	          0.00000000	         -0.06736209	          0.00000000	          0.90816012	          0.00000000	          0.00000000	         -1.09147288	          0.00000000	
          0.15658282	        -76.39099818	        790.06062283	         21.70216095	          0.19158423	          0.00000000	          0.04598465	         -7.47798163	        282.13559740	        -29.31982073	         -0.12402524	          0.00000000	         -0.06481120	          0.00000000	         -0.05272338	          0.00000000	          0.00000000	         -0.63052045	          0.00000000	
          0.18789938	        -64.80141099	        782.18137245	         17.88243851	          0.19650878	          0.00000000	          0.04541221	        -16.07906631	        230.42924030	        -29.07250379	         -0.10958393	          0.00000000	         -0.06455702	          0.00000000	         -1.22507871	          0.00000000	          0.00000000	         -0.41673474	          0.00000000	
          0.21921595	        -53.78921202	        779.76405461	         14.78800330	          0.20005053	          0.00000000	          0.04535051	        -23.39589129	        189.85928347	        -28.76176321	         -0.09580912	          0.00000000	         -0.06410939	          0.00000000	         -1.75431159	          0.00000000	          0.00000000	         -0.20231950	          0.00000000	
          0.25053251	        -43.87304429	        781.81770906	         12.64606630	          0.20289935	          0.00000000	          0.04573829	        -27.88121564	        166.11990492	        -30.27325560	         -0.08731522	          0.00000000	         -0.06227714	          0.00000000	         -1.67640550	          0.00000000	          0.00000000	         -0.05711957	          0.00000000	
          0.28184907	        -34.03585984	        782.58443752	         10.34691545	          0.20521802	          0.00000000	          0.04646738	        -27.91814454	        150.19721327	        -33.39328161	         -0.08297612	          0.00000000	         -0.05999059	          0.00000000	         -1.39295643	          0.00000000	          0.00000000	         -0.01066198	          0.00000000	
          0.31316564	        -24.48003155	        782.83603136	          7.57765029	          0.20715630	          0.00000000	          0.04746147	        -26.98090440	        136.51505198	        -36.64810925	         -0.07925620	          0.00000000	         -0.05841323	          0.00000000	         -1.03749907	          0.00000000	          0.00000000	          0.01166677	          0.00000000	
          0.34448220	        -15.46069656	        785.59758410	          4.65216307	          0.20874875	          0.00000000	          0.04864358	        -26.03388418	        122.55968394	        -36.19779003	         -0.07557435	          0.00000000	         -0.05733093	          0.00000000	         -0.53943608	          0.00000000	          0.00000000	          0.02946729	          0.00000000	
          0.37579876	         -6.14443170	        792.39270305	          1.57813317	          0.20989428	          0.00000000	          0.04990502	        -25.50234844	        103.78896189	        -32.98484910	         -0.07182434	          0.00000000	         -0.05695599	          0.00000000	          0.07884097	          0.00000000	          0.00000000	          0.04815480	          0.00000000	
          0.40711533	          4.19513093	        808.07245353	         -2.53438470	          0.21101501	          0.00000000	          0.05117230	        -28.16120055	         69.89104151	        -24.10329098	         -0.06787972	          0.00000000	         -0.05757683	          0.00000000	          0.63767656	          0.00000000	          0.00000000	          0.05062186	          0.00000000	
          0.43843189	         15.63757336	        829.27677238	         -6.51040697	          0.21173916	          0.00000000	          0.05233940	        -27.16685035	         30.61914967	         -5.95004848	         -0.06207626	          0.00000000	         -0.05846429	          0.00000000	          1.17839873	          0.00000000	          0.00000000	          0.00661576	          0.00000000	
